Coordinates
version=1
nRows=17
nColumns=24
inDegrees=yes

Units are S.I. units (second, meters, Newtons, ...)
Angles are in degrees.

endheader
time	pelvis_tilt	pelvis_list	pelvis_rotation	pelvis_tx	pelvis_ty	pelvis_tz	hip_flexion_r	hip_adduction_r	hip_rotation_r	knee_angle_r	ankle_angle_r	subtalar_angle_r	mtp_angle_r	hip_flexion_l	hip_adduction_l	hip_rotation_l	knee_angle_l	ankle_angle_l	subtalar_angle_l	mtp_angle_l	lumbar_extension	lumbar_bending	lumbar_rotation
      1.81683333	      1.66924987	      7.68679513	     -6.24446471	      1.35917544	      1.01973751	      0.27819642	     14.38258689	     -7.40793071	      3.41867668	    -62.79964985	      6.68454916	    -15.11549724	      1.49387061	      5.55693902	     12.60713799	      1.18920145	    -10.48212849	     -0.00838892	    -20.52837763	      8.13242174	     -1.92929652	     -8.80450291	      6.79625346
      1.82100000	      1.63726584	      7.59243356	     -6.01928809	      1.36364933	      1.02026068	      0.27796156	     14.87628381	     -7.25718347	      3.22911492	    -62.33118751	      6.83009016	    -15.10844049	      1.46118412	      5.13482974	     12.54635146	      1.45195441	    -10.21735921	      0.09401020	    -20.44233383	      8.11022631	     -1.95466907	     -8.69497999	      6.73226140
      1.82516667	      1.63795156	      7.50273814	     -5.79770856	      1.36808287	      1.02078534	      0.27772317	     15.33133665	     -7.11895840	      3.04550378	    -61.84175433	      6.94341582	    -15.09854104	      1.37578575	      4.65843846	     12.49925576	      1.80048368	     -9.90871426	      0.16985762	    -20.50518566	      8.04577251	     -2.03944913	     -8.60199138	      6.43339424
      1.82933333	      1.59357645	      7.41518540	     -5.56166123	      1.37252988	      1.02122271	      0.27749512	     15.82208062	     -6.98186105	      2.85124173	    -61.32651704	      7.08528912	    -15.08572923	      1.33425535	      4.25511247	     12.43716777	      2.08557426	     -9.64323622	      0.22211434	    -20.44172329	      8.01622167	     -2.05412585	     -8.51171786	      6.32561582
      1.83350000	      1.59204636	      7.33492714	     -5.33776937	      1.37697418	      1.02169752	      0.27726346	     16.26180681	     -6.86694622	      2.65666093	    -60.78157951	      7.19735176	    -15.05986863	      1.24749555	      3.78016807	     12.39133017	      2.42817953	     -9.32548385	      0.28087168	    -20.51870533	      7.95303039	     -2.11488703	     -8.42475411	      6.02556671
      1.83766667	      1.53576214	      7.25966322	     -5.10986336	      1.38141785	      1.02205495	      0.27702852	     16.75831785	     -6.75630578	      2.46222938	    -60.22601379	      7.32103961	    -15.04029320	      1.21653881	      3.39212421	     12.33454105	      2.68981029	     -9.06137545	      0.33023220	    -20.43268351	      7.93034496	     -2.12095839	     -8.32318102	      5.95163058
      1.84183333	      1.51814801	      7.17951148	     -4.87782560	      1.38583379	      1.02245702	      0.27680431	     17.19729726	     -6.64536730	      2.26771977	    -59.62996704	      7.40755812	    -15.00774720	      1.13185606	      2.94509356	     12.27991926	      3.04087595	     -8.76348381	      0.39293981	    -20.52565771	      7.86514591	     -2.16778071	     -8.24171638	      5.62476511
      1.84600000	      1.49165268	      7.10373126	     -4.64483231	      1.39022283	      1.02279579	      0.27658886	     17.64576989	     -6.54284238	      2.07368091	    -59.02393003	      7.51591372	    -14.95929008	      1.05812770	      2.52393207	     12.22007022	      3.34299846	     -8.48791286	      0.44799453	    -20.53446103	      7.80946346	     -2.21169201	     -8.15885232	      5.44235676
      1.85016667	      1.43361056	      7.03445597	     -4.40342074	      1.39464564	      1.02306520	      0.27638074	     18.11402512	     -6.44988999	      1.87544252	    -58.39450023	      7.62309802	    -14.91770269	      1.02174990	      2.14670551	     12.15757313	      3.62055518	     -8.23558776	      0.49312344	    -20.47035625	      7.78274353	     -2.21226067	     -8.08576362	      5.33645069
      1.85433333	      1.41402784	      6.97862108	     -4.16917286	      1.39903344	      1.02335091	      0.27617930	     18.53724519	     -6.37898204	      1.68467281	    -57.74675682	      7.70891622	    -14.86944185	      0.93161608	      1.70573774	     12.11539155	      3.97506396	     -7.92651766	      0.51197900	    -20.56467819	      7.70946833	     -2.26732884	     -8.03195973	      4.99857395
      1.85850000	      1.36184326	      6.90396508	     -3.92396493	      1.40342645	      1.02357497	      0.27596390	     18.97709102	     -6.29307505	      1.47945870	    -57.06332376	      7.78596469	    -14.80847068	      0.89962649	      1.33613513	     12.04158426	      4.24487277	     -7.70160426	      0.59187401	    -20.50266639	      7.68511116	     -2.26937505	     -7.94649639	      4.92294441
      1.86266667	      1.34488857	      6.84171738	     -3.70154088	      1.40781528	      1.02381500	      0.27578248	     19.37859932	     -6.22103326	      1.29652569	    -56.36838122	      7.83794633	    -14.76437113	      0.82612956	      0.90133991	     11.98446606	      4.56623671	     -7.41296603	      0.64853743	    -20.57063396	      7.62482908	     -2.32006214	     -7.87533664	      4.62800674
      1.86683333	      1.28071811	      6.79443238	     -3.47342783	      1.41220412	      1.02394138	      0.27561339	     19.83084753	     -6.16663747	      1.11484033	    -55.66795607	      7.91492593	    -14.70045808	      0.80696496	      0.53483510	     11.92848661	      4.80822395	     -7.15017012	      0.69616100	    -20.46758437	      7.61062605	     -2.31602053	     -7.81124168	      4.57047476
      1.87100000	      1.25180894	      6.72008198	     -3.20588154	      1.41655851	      1.02414120	      0.27540883	     20.20505690	     -6.09944102	      0.89210389	    -54.90620055	      7.94397598	    -14.63065131	      0.77317490	      0.14984198	     11.84746841	      5.12687454	     -6.94423934	      0.77041099	    -20.48346742	      7.58178519	     -2.35546615	     -7.74353041	      4.37136228
      1.87516667	      1.21118240	      6.68909294	     -2.99904971	      1.42095102	      1.02423114	      0.27528670	     20.61716967	     -6.06296077	      0.74045206	    -54.16889037	      7.98710263	    -14.56713006	      0.70360461	     -0.26654483	     11.81056371	      5.45920679	     -6.62865467	      0.77911664	    -20.59537175	      7.51565136	     -2.38152156	     -7.71664207	      4.05286746
      1.87933333	      1.17618380	      6.62999554	     -2.76544146	      1.42535309	      1.02434291	      0.27513662	     20.99105248	     -6.01242833	      0.54678062	    -53.38168245	      8.02062442	    -14.48320224	      0.68023019	     -0.65459788	     11.73343728	      5.70083429	     -6.38880248	      0.84421781	    -20.52088419	      7.49465283	     -2.39743051	     -7.65124300	      3.98092250
      1.88350000	      1.12888400	      6.59099536	     -2.52696994	      1.42973464	      1.02438665	      0.27500125	     21.37714274	     -5.98660919	      0.35596563	    -52.59090154	      8.03796612	    -14.40316950	      0.65422972	     -1.02787665	     11.67519838	      5.97771177	     -6.15403103	      0.91932172	    -20.49418735	      7.47009680	     -2.41337091	     -7.61282154	      3.83180750
